<?xml version="1.0" encoding="utf-8"?>
<!-- Generator: Adobe Illustrator 19.1.0, SVG Export Plug-In . SVG Version: 6.00 Build 0)  -->
<svg version="1.1" id="Layer_1" xmlns="http://www.w3.org/2000/svg" xmlns:xlink="http://www.w3.org/1999/xlink" x="0px" y="0px"
	 viewBox="0 0 64 64" enable-background="new 0 0 64 64" xml:space="preserve">
<path id="Hourglass" class="jp-icon2" fill="#424242" d="M55.9541512,62H49.455349c1.2190018-2.7644005,1.8640022-5.7952995,1.8640022-8.8642006
	c0-9.9873009-6.4678001-18.3936005-15.5-20.3232994v-1.625c9.0321999-1.9297009,15.5-10.3358994,15.5-20.3232002
	C51.3193512,7.7954001,50.6743507,4.7644,49.455349,2h6.4988022c0.5527,0,1-0.4471999,1-1c0-0.5527-0.4473-1-1-1h-8.089901
	H16.1376495H8.0458508c-0.5527,0-1,0.4473-1,1c0,0.5528001,0.4473,1,1,1h6.5008001
	c-1.2191,2.7644-1.8640003,5.7954001-1.8640003,8.8642998c0,9.9873009,6.4677,18.3934994,15.499999,20.3232002v1.625
	c-9.032299,1.9296989-15.499999,10.3359985-15.499999,20.3232994c0,3.0689011,0.6449003,6.0998001,1.8640003,8.8642006H8.0458508
	c-0.5527,0-1,0.4473-1,1c0,0.5527992,0.4473,1,1,1h8.0917988h31.7266006h8.089901c0.5527,0,1-0.4472008,1-1
	C56.9541512,62.4473,56.5068512,62,55.9541512,62z M16.7470646,62c-1.3525143-2.7196999-2.064414-5.7714996-2.064414-8.8642006
	c0-9.1601982,6.3046999-17.1171989,14.6639986-18.5088005c0.4825001-0.0800972,0.8360004-0.497097,0.8360004-0.9862976v-3.2813015
	c0-0.4892998-0.3535004-0.9062004-0.8360004-0.9862995c-8.3592987-1.3915997-14.6639986-9.3486996-14.6639986-18.5088005
	c0-3.0927997,0.7118998-6.1444998,2.064414-8.8642998h30.5077839c1.3526001,2.7198,2.0645027,5.7715001,2.0645027,8.8642998
	c0,9.1601009-6.3047028,17.1172009-14.6641006,18.5088005c-0.482399,0.0800991-0.8358994,0.4969997-0.8358994,0.9862995v3.2813015
	c0,0.4892006,0.3535004,0.9062004,0.8358994,0.9862976c8.3593979,1.3916016,14.6641006,9.3486023,14.6641006,18.5088005
	c0,3.092701-0.7119026,6.1445007-2.0645027,8.8642006H16.7470646z"/>
<g>
</g>
<g>
</g>
<g>
</g>
<g>
</g>
<g>
</g>
<g>
</g>
<g>
</g>
<g>
</g>
<g>
</g>
<g>
</g>
<g>
</g>
<g>
</g>
<g>
</g>
<g>
</g>
<g>
</g>
</svg>
